<mxfile host="app.diagrams.net" modified="2023-04-01T19:55:04.134Z" agent="Mozilla/5.0 (Macintosh; Intel Mac OS X 10_15_7) AppleWebKit/537.36 (KHTML, like Gecko) Chrome/111.0.0.0 Safari/537.36" etag="82_9UzISYlyrQ4DSPpNt" version="21.1.1" type="device" pages="2">
  <diagram name="Page-1" id="FxkNzPlFqqwspBcJ1gmj">
    <mxGraphModel dx="1590" dy="1078" grid="1" gridSize="10" guides="1" tooltips="1" connect="1" arrows="1" fold="1" page="1" pageScale="1" pageWidth="850" pageHeight="1100" math="0" shadow="0">
      <root>
        <mxCell id="0" />
        <mxCell id="1" parent="0" />
        <mxCell id="N1Jqem2wT4uaWHVTld5B-17" style="edgeStyle=orthogonalEdgeStyle;rounded=0;orthogonalLoop=1;jettySize=auto;html=1;fontSize=20;" parent="1" source="N1Jqem2wT4uaWHVTld5B-1" target="N1Jqem2wT4uaWHVTld5B-11" edge="1">
          <mxGeometry relative="1" as="geometry" />
        </mxCell>
        <mxCell id="N1Jqem2wT4uaWHVTld5B-1" value="&lt;font style=&quot;font-size: 20px;&quot;&gt;Patient&lt;/font&gt;" style="shape=umlActor;verticalLabelPosition=bottom;verticalAlign=top;html=1;outlineConnect=0;" parent="1" vertex="1">
          <mxGeometry x="120" y="10" width="70" height="100" as="geometry" />
        </mxCell>
        <mxCell id="N1Jqem2wT4uaWHVTld5B-2" value="&lt;font style=&quot;font-size: 20px;&quot;&gt;Healthcare Provider&lt;/font&gt;" style="shape=umlActor;verticalLabelPosition=bottom;verticalAlign=top;html=1;outlineConnect=0;" parent="1" vertex="1">
          <mxGeometry x="940" y="10" width="70" height="100" as="geometry" />
        </mxCell>
        <mxCell id="N1Jqem2wT4uaWHVTld5B-3" value="&lt;font style=&quot;font-size: 19px;&quot;&gt;System Administrator&amp;nbsp;&lt;br&gt;&lt;/font&gt;" style="shape=umlActor;verticalLabelPosition=bottom;verticalAlign=top;html=1;outlineConnect=0;" parent="1" vertex="1">
          <mxGeometry x="560" y="820" width="40" height="80" as="geometry" />
        </mxCell>
        <mxCell id="N1Jqem2wT4uaWHVTld5B-4" value="" style="rounded=0;whiteSpace=wrap;html=1;" parent="1" vertex="1">
          <mxGeometry x="40" y="160" width="940" height="630" as="geometry" />
        </mxCell>
        <mxCell id="N1Jqem2wT4uaWHVTld5B-19" style="edgeStyle=orthogonalEdgeStyle;rounded=0;orthogonalLoop=1;jettySize=auto;html=1;exitX=0.5;exitY=0;exitDx=0;exitDy=0;fontSize=20;" parent="1" source="N1Jqem2wT4uaWHVTld5B-11" target="N1Jqem2wT4uaWHVTld5B-1" edge="1">
          <mxGeometry relative="1" as="geometry" />
        </mxCell>
        <mxCell id="N1Jqem2wT4uaWHVTld5B-11" value="Patient Registration" style="ellipse;whiteSpace=wrap;html=1;fontSize=20;" parent="1" vertex="1">
          <mxGeometry x="80" y="240" width="120" height="80" as="geometry" />
        </mxCell>
        <mxCell id="N1Jqem2wT4uaWHVTld5B-22" style="edgeStyle=orthogonalEdgeStyle;rounded=0;orthogonalLoop=1;jettySize=auto;html=1;exitX=0.5;exitY=0;exitDx=0;exitDy=0;fontSize=20;" parent="1" source="N1Jqem2wT4uaWHVTld5B-14" edge="1">
          <mxGeometry relative="1" as="geometry">
            <mxPoint x="170" y="110.00000000000011" as="targetPoint" />
          </mxGeometry>
        </mxCell>
        <mxCell id="N1Jqem2wT4uaWHVTld5B-14" value="Edit Profile" style="ellipse;whiteSpace=wrap;html=1;fontSize=20;" parent="1" vertex="1">
          <mxGeometry x="250" y="435" width="120" height="80" as="geometry" />
        </mxCell>
        <mxCell id="N1Jqem2wT4uaWHVTld5B-20" style="edgeStyle=orthogonalEdgeStyle;rounded=0;orthogonalLoop=1;jettySize=auto;html=1;exitX=0.5;exitY=0;exitDx=0;exitDy=0;entryX=1;entryY=1;entryDx=0;entryDy=0;entryPerimeter=0;fontSize=20;" parent="1" source="N1Jqem2wT4uaWHVTld5B-15" target="N1Jqem2wT4uaWHVTld5B-1" edge="1">
          <mxGeometry relative="1" as="geometry" />
        </mxCell>
        <mxCell id="N1Jqem2wT4uaWHVTld5B-15" value="View Prescription History" style="ellipse;whiteSpace=wrap;html=1;fontSize=20;" parent="1" vertex="1">
          <mxGeometry x="400" y="310" width="120" height="80" as="geometry" />
        </mxCell>
        <mxCell id="N1Jqem2wT4uaWHVTld5B-26" value="" style="endArrow=classic;html=1;rounded=0;fontSize=20;" parent="1" target="N1Jqem2wT4uaWHVTld5B-2" edge="1">
          <mxGeometry width="50" height="50" relative="1" as="geometry">
            <mxPoint x="360" y="490" as="sourcePoint" />
            <mxPoint x="410" y="440" as="targetPoint" />
          </mxGeometry>
        </mxCell>
        <mxCell id="N1Jqem2wT4uaWHVTld5B-27" value="" style="endArrow=classic;html=1;rounded=0;fontSize=20;" parent="1" edge="1">
          <mxGeometry width="50" height="50" relative="1" as="geometry">
            <mxPoint x="490" y="320" as="sourcePoint" />
            <mxPoint x="930" y="50" as="targetPoint" />
          </mxGeometry>
        </mxCell>
        <mxCell id="N1Jqem2wT4uaWHVTld5B-28" value="Search for Patients or Providers" style="ellipse;whiteSpace=wrap;html=1;fontSize=20;" parent="1" vertex="1">
          <mxGeometry x="730" y="350" width="120" height="80" as="geometry" />
        </mxCell>
        <mxCell id="N1Jqem2wT4uaWHVTld5B-29" value="" style="endArrow=classic;html=1;rounded=0;fontSize=20;" parent="1" target="N1Jqem2wT4uaWHVTld5B-2" edge="1">
          <mxGeometry width="50" height="50" relative="1" as="geometry">
            <mxPoint x="820" y="350" as="sourcePoint" />
            <mxPoint x="870" y="300" as="targetPoint" />
          </mxGeometry>
        </mxCell>
        <mxCell id="N1Jqem2wT4uaWHVTld5B-30" value="" style="endArrow=classic;html=1;rounded=0;fontSize=20;" parent="1" target="N1Jqem2wT4uaWHVTld5B-1" edge="1">
          <mxGeometry width="50" height="50" relative="1" as="geometry">
            <mxPoint x="740" y="370" as="sourcePoint" />
            <mxPoint x="790" y="320" as="targetPoint" />
          </mxGeometry>
        </mxCell>
        <mxCell id="N1Jqem2wT4uaWHVTld5B-31" value="Manage User Permissions" style="ellipse;whiteSpace=wrap;html=1;fontSize=20;" parent="1" vertex="1">
          <mxGeometry x="520" y="620" width="120" height="80" as="geometry" />
        </mxCell>
        <mxCell id="N1Jqem2wT4uaWHVTld5B-32" value="" style="endArrow=classic;html=1;rounded=0;fontSize=20;entryX=0.5;entryY=0;entryDx=0;entryDy=0;entryPerimeter=0;" parent="1" target="N1Jqem2wT4uaWHVTld5B-3" edge="1">
          <mxGeometry width="50" height="50" relative="1" as="geometry">
            <mxPoint x="580" y="700" as="sourcePoint" />
            <mxPoint x="650" y="660" as="targetPoint" />
            <Array as="points">
              <mxPoint x="580" y="710" />
            </Array>
          </mxGeometry>
        </mxCell>
        <mxCell id="N1Jqem2wT4uaWHVTld5B-33" value="Receive Notifications" style="ellipse;whiteSpace=wrap;html=1;fontSize=20;" parent="1" vertex="1">
          <mxGeometry x="550" y="410" width="120" height="80" as="geometry" />
        </mxCell>
        <mxCell id="N1Jqem2wT4uaWHVTld5B-34" value="" style="endArrow=classic;html=1;rounded=0;fontSize=20;" parent="1" edge="1">
          <mxGeometry width="50" height="50" relative="1" as="geometry">
            <mxPoint x="580" y="410" as="sourcePoint" />
            <mxPoint x="190" y="120" as="targetPoint" />
          </mxGeometry>
        </mxCell>
        <mxCell id="N1Jqem2wT4uaWHVTld5B-36" value="" style="endArrow=classic;html=1;rounded=0;fontSize=20;" parent="1" target="N1Jqem2wT4uaWHVTld5B-2" edge="1">
          <mxGeometry width="50" height="50" relative="1" as="geometry">
            <mxPoint x="640" y="420" as="sourcePoint" />
            <mxPoint x="690" y="370" as="targetPoint" />
          </mxGeometry>
        </mxCell>
        <mxCell id="N1Jqem2wT4uaWHVTld5B-37" value="Book Appointment" style="ellipse;whiteSpace=wrap;html=1;fontSize=20;" parent="1" vertex="1">
          <mxGeometry x="60" y="595" width="120" height="80" as="geometry" />
        </mxCell>
        <mxCell id="N1Jqem2wT4uaWHVTld5B-38" value="" style="endArrow=classic;html=1;rounded=0;fontSize=20;entryX=0;entryY=1;entryDx=0;entryDy=0;entryPerimeter=0;" parent="1" target="N1Jqem2wT4uaWHVTld5B-1" edge="1">
          <mxGeometry width="50" height="50" relative="1" as="geometry">
            <mxPoint x="120" y="590" as="sourcePoint" />
            <mxPoint x="170" y="540" as="targetPoint" />
          </mxGeometry>
        </mxCell>
        <mxCell id="N1Jqem2wT4uaWHVTld5B-39" value="" style="endArrow=classic;html=1;rounded=0;fontSize=20;entryX=1;entryY=1;entryDx=0;entryDy=0;entryPerimeter=0;" parent="1" target="N1Jqem2wT4uaWHVTld5B-2" edge="1">
          <mxGeometry width="50" height="50" relative="1" as="geometry">
            <mxPoint x="200" y="610" as="sourcePoint" />
            <mxPoint x="250" y="560" as="targetPoint" />
          </mxGeometry>
        </mxCell>
        <mxCell id="N1Jqem2wT4uaWHVTld5B-40" value="Cancel Appointment" style="ellipse;whiteSpace=wrap;html=1;fontSize=20;" parent="1" vertex="1">
          <mxGeometry x="790" y="515" width="120" height="80" as="geometry" />
        </mxCell>
        <mxCell id="N1Jqem2wT4uaWHVTld5B-41" value="" style="endArrow=classic;html=1;rounded=0;fontSize=20;" parent="1" target="N1Jqem2wT4uaWHVTld5B-2" edge="1">
          <mxGeometry width="50" height="50" relative="1" as="geometry">
            <mxPoint x="860" y="520" as="sourcePoint" />
            <mxPoint x="910" y="470" as="targetPoint" />
          </mxGeometry>
        </mxCell>
        <mxCell id="N1Jqem2wT4uaWHVTld5B-42" value="" style="endArrow=classic;html=1;rounded=0;fontSize=20;" parent="1" target="N1Jqem2wT4uaWHVTld5B-1" edge="1">
          <mxGeometry width="50" height="50" relative="1" as="geometry">
            <mxPoint x="800" y="530" as="sourcePoint" />
            <mxPoint x="850" y="480" as="targetPoint" />
          </mxGeometry>
        </mxCell>
        <mxCell id="N1Jqem2wT4uaWHVTld5B-44" value="" style="endArrow=classic;html=1;rounded=0;fontSize=20;" parent="1" edge="1">
          <mxGeometry width="50" height="50" relative="1" as="geometry">
            <mxPoint x="300" y="520" as="sourcePoint" />
            <mxPoint x="570" y="810" as="targetPoint" />
          </mxGeometry>
        </mxCell>
        <mxCell id="N1Jqem2wT4uaWHVTld5B-45" value="" style="endArrow=classic;html=1;rounded=0;fontSize=20;" parent="1" edge="1">
          <mxGeometry width="50" height="50" relative="1" as="geometry">
            <mxPoint x="460" y="390" as="sourcePoint" />
            <mxPoint x="580" y="810" as="targetPoint" />
          </mxGeometry>
        </mxCell>
        <mxCell id="N1Jqem2wT4uaWHVTld5B-47" value="" style="endArrow=classic;html=1;rounded=0;fontSize=20;" parent="1" target="N1Jqem2wT4uaWHVTld5B-3" edge="1">
          <mxGeometry width="50" height="50" relative="1" as="geometry">
            <mxPoint x="640" y="490" as="sourcePoint" />
            <mxPoint x="690" y="440" as="targetPoint" />
          </mxGeometry>
        </mxCell>
        <mxCell id="N1Jqem2wT4uaWHVTld5B-48" value="" style="endArrow=classic;html=1;rounded=0;fontSize=20;" parent="1" target="N1Jqem2wT4uaWHVTld5B-3" edge="1">
          <mxGeometry width="50" height="50" relative="1" as="geometry">
            <mxPoint x="810" y="430" as="sourcePoint" />
            <mxPoint x="860" y="380" as="targetPoint" />
          </mxGeometry>
        </mxCell>
      </root>
    </mxGraphModel>
  </diagram>
  <diagram id="NPpj2U4y-P6EXuyD0a30" name="Page-2">
    <mxGraphModel dx="1363" dy="924" grid="1" gridSize="10" guides="1" tooltips="1" connect="1" arrows="1" fold="1" page="1" pageScale="1" pageWidth="850" pageHeight="1100" math="0" shadow="0">
      <root>
        <mxCell id="0" />
        <mxCell id="1" parent="0" />
        <mxCell id="EvuoQ4afsEzFzzTmNTau-1" value="&lt;font style=&quot;font-size: 20px;&quot;&gt;Patient&lt;/font&gt;" style="shape=umlActor;verticalLabelPosition=bottom;verticalAlign=top;html=1;outlineConnect=0;" parent="1" vertex="1">
          <mxGeometry x="50" y="10" width="30" height="60" as="geometry" />
        </mxCell>
        <mxCell id="EvuoQ4afsEzFzzTmNTau-2" value="Healthcare Provider" style="shape=umlActor;verticalLabelPosition=bottom;verticalAlign=top;html=1;outlineConnect=0;fontSize=20;" parent="1" vertex="1">
          <mxGeometry x="850" y="10" width="30" height="60" as="geometry" />
        </mxCell>
        <mxCell id="EvuoQ4afsEzFzzTmNTau-3" value="System Administrator&amp;nbsp;" style="shape=umlActor;verticalLabelPosition=bottom;verticalAlign=top;html=1;outlineConnect=0;fontSize=20;" parent="1" vertex="1">
          <mxGeometry x="450" y="590" width="30" height="60" as="geometry" />
        </mxCell>
        <mxCell id="EvuoQ4afsEzFzzTmNTau-4" value="" style="rounded=0;whiteSpace=wrap;html=1;fontSize=20;" parent="1" vertex="1">
          <mxGeometry x="20" y="150" width="1020" height="400" as="geometry" />
        </mxCell>
        <mxCell id="Y7uZG0GKq8FejRdUQLgF-1" value="Profile&lt;br&gt;Registration" style="ellipse;whiteSpace=wrap;html=1;fontSize=20;" parent="1" vertex="1">
          <mxGeometry x="50" y="290" width="120" height="80" as="geometry" />
        </mxCell>
        <mxCell id="WiMEpCKZOwfHil7WAbh3-1" value="View Prescription History" style="ellipse;whiteSpace=wrap;html=1;fontSize=20;" parent="1" vertex="1">
          <mxGeometry x="190" y="290" width="120" height="80" as="geometry" />
        </mxCell>
        <mxCell id="yO1_ZASthGaktMf6I8F5-1" value="Book Appointment" style="ellipse;whiteSpace=wrap;html=1;fontSize=20;" parent="1" vertex="1">
          <mxGeometry x="330" y="290" width="120" height="80" as="geometry" />
        </mxCell>
        <mxCell id="KtVAjhw0VsFJQKVvdX7Z-1" value="Edit Profile" style="ellipse;whiteSpace=wrap;html=1;fontSize=20;" parent="1" vertex="1">
          <mxGeometry x="470" y="290" width="120" height="80" as="geometry" />
        </mxCell>
        <mxCell id="j1u5xxsP-ly2meIBvSGZ-1" value="Receive Notifications" style="ellipse;whiteSpace=wrap;html=1;fontSize=20;" parent="1" vertex="1">
          <mxGeometry x="610" y="290" width="120" height="80" as="geometry" />
        </mxCell>
        <mxCell id="--zlraYjuOfOeho-tH6E-1" value="Manage User Permissions" style="ellipse;whiteSpace=wrap;html=1;fontSize=20;" parent="1" vertex="1">
          <mxGeometry x="250" y="460" width="120" height="80" as="geometry" />
        </mxCell>
        <mxCell id="UEg5WPngI3EHNW5abkDg-1" value="Search for Patients or Providers" style="ellipse;whiteSpace=wrap;html=1;fontSize=20;" parent="1" vertex="1">
          <mxGeometry x="660" y="460" width="120" height="80" as="geometry" />
        </mxCell>
        <mxCell id="QIH-8TVDxYOv35t5eLtX-1" value="Cancel Appointment" style="ellipse;whiteSpace=wrap;html=1;fontSize=20;" parent="1" vertex="1">
          <mxGeometry x="750" y="290" width="120" height="80" as="geometry" />
        </mxCell>
        <mxCell id="QIH-8TVDxYOv35t5eLtX-11" value="" style="shape=flexArrow;endArrow=classic;html=1;rounded=0;fontSize=20;fillColor=#ffe6cc;strokeColor=#d79b00;opacity=50;" parent="1" edge="1">
          <mxGeometry width="50" height="50" relative="1" as="geometry">
            <mxPoint x="360" y="290" as="sourcePoint" />
            <mxPoint x="120" y="80" as="targetPoint" />
          </mxGeometry>
        </mxCell>
        <mxCell id="QIH-8TVDxYOv35t5eLtX-12" value="" style="shape=flexArrow;endArrow=classic;html=1;rounded=0;fontSize=20;fillColor=#ffe6cc;strokeColor=#d79b00;opacity=50;" parent="1" source="WiMEpCKZOwfHil7WAbh3-1" edge="1">
          <mxGeometry width="50" height="50" relative="1" as="geometry">
            <mxPoint x="190" y="290" as="sourcePoint" />
            <mxPoint x="100" y="100" as="targetPoint" />
          </mxGeometry>
        </mxCell>
        <mxCell id="QIH-8TVDxYOv35t5eLtX-13" value="" style="shape=flexArrow;endArrow=classic;html=1;rounded=0;fontSize=20;fillColor=#ffe6cc;strokeColor=#d79b00;opacity=50;" parent="1" edge="1">
          <mxGeometry width="50" height="50" relative="1" as="geometry">
            <mxPoint x="90" y="290" as="sourcePoint" />
            <mxPoint x="70" y="100" as="targetPoint" />
          </mxGeometry>
        </mxCell>
        <mxCell id="QIH-8TVDxYOv35t5eLtX-14" value="" style="shape=flexArrow;endArrow=classic;html=1;rounded=0;fontSize=20;fillColor=#ffe6cc;strokeColor=#d79b00;opacity=50;" parent="1" edge="1">
          <mxGeometry width="50" height="50" relative="1" as="geometry">
            <mxPoint x="510" y="290" as="sourcePoint" />
            <mxPoint x="140" y="50" as="targetPoint" />
          </mxGeometry>
        </mxCell>
        <mxCell id="QIH-8TVDxYOv35t5eLtX-15" value="" style="shape=flexArrow;endArrow=classic;html=1;rounded=0;fontSize=20;fillColor=#ffe6cc;strokeColor=#d79b00;opacity=50;" parent="1" edge="1">
          <mxGeometry width="50" height="50" relative="1" as="geometry">
            <mxPoint x="660" y="290" as="sourcePoint" />
            <mxPoint x="110" y="50" as="targetPoint" />
          </mxGeometry>
        </mxCell>
        <mxCell id="QIH-8TVDxYOv35t5eLtX-16" value="" style="shape=flexArrow;endArrow=classic;html=1;rounded=0;fontSize=20;fillColor=#ffe6cc;strokeColor=#d79b00;opacity=50;" parent="1" edge="1">
          <mxGeometry width="50" height="50" relative="1" as="geometry">
            <mxPoint x="800" y="290" as="sourcePoint" />
            <mxPoint x="100" y="80" as="targetPoint" />
          </mxGeometry>
        </mxCell>
        <mxCell id="QIH-8TVDxYOv35t5eLtX-17" value="" style="shape=flexArrow;endArrow=classic;html=1;rounded=0;fontSize=20;fillColor=#1ba1e2;strokeColor=#006EAF;opacity=50;" parent="1" edge="1">
          <mxGeometry width="50" height="50" relative="1" as="geometry">
            <mxPoint x="360" y="520" as="sourcePoint" />
            <mxPoint x="430" y="600" as="targetPoint" />
          </mxGeometry>
        </mxCell>
        <mxCell id="QIH-8TVDxYOv35t5eLtX-18" value="" style="shape=flexArrow;endArrow=classic;html=1;rounded=0;fontSize=20;fillColor=#d5e8d4;strokeColor=#82b366;opacity=50;" parent="1" edge="1">
          <mxGeometry width="50" height="50" relative="1" as="geometry">
            <mxPoint x="770" y="480" as="sourcePoint" />
            <mxPoint x="860" y="80" as="targetPoint" />
          </mxGeometry>
        </mxCell>
        <mxCell id="QIH-8TVDxYOv35t5eLtX-20" value="" style="shape=flexArrow;endArrow=classic;html=1;rounded=0;fontSize=20;fillColor=#d5e8d4;strokeColor=#82b366;opacity=50;" parent="1" edge="1">
          <mxGeometry width="50" height="50" relative="1" as="geometry">
            <mxPoint x="830" y="290" as="sourcePoint" />
            <mxPoint x="920" y="80" as="targetPoint" />
          </mxGeometry>
        </mxCell>
        <mxCell id="QIH-8TVDxYOv35t5eLtX-21" value="" style="shape=flexArrow;endArrow=classic;html=1;rounded=0;fontSize=20;fillColor=#d5e8d4;strokeColor=#82b366;opacity=50;" parent="1" edge="1">
          <mxGeometry width="50" height="50" relative="1" as="geometry">
            <mxPoint x="680" y="290" as="sourcePoint" />
            <mxPoint x="820" y="80" as="targetPoint" />
          </mxGeometry>
        </mxCell>
        <mxCell id="QIH-8TVDxYOv35t5eLtX-22" value="" style="shape=flexArrow;endArrow=classic;html=1;rounded=0;fontSize=20;fillColor=#d5e8d4;strokeColor=#82b366;opacity=50;" parent="1" edge="1">
          <mxGeometry width="50" height="50" relative="1" as="geometry">
            <mxPoint x="540" y="290" as="sourcePoint" />
            <mxPoint x="780" y="80" as="targetPoint" />
          </mxGeometry>
        </mxCell>
        <mxCell id="QIH-8TVDxYOv35t5eLtX-23" value="" style="shape=flexArrow;endArrow=classic;html=1;rounded=0;fontSize=20;fillColor=#d5e8d4;strokeColor=#82b366;opacity=50;" parent="1" edge="1">
          <mxGeometry width="50" height="50" relative="1" as="geometry">
            <mxPoint x="400" y="290" as="sourcePoint" />
            <mxPoint x="760" y="60" as="targetPoint" />
          </mxGeometry>
        </mxCell>
        <mxCell id="QIH-8TVDxYOv35t5eLtX-25" value="" style="shape=flexArrow;endArrow=classic;html=1;rounded=0;fontSize=20;fillColor=#d5e8d4;strokeColor=#82b366;opacity=50;" parent="1" edge="1">
          <mxGeometry width="50" height="50" relative="1" as="geometry">
            <mxPoint x="260" y="290" as="sourcePoint" />
            <mxPoint x="760" y="30" as="targetPoint" />
          </mxGeometry>
        </mxCell>
        <mxCell id="QIH-8TVDxYOv35t5eLtX-26" value="" style="shape=flexArrow;endArrow=classic;html=1;rounded=0;fontSize=20;fillColor=#1ba1e2;strokeColor=#006EAF;opacity=50;" parent="1" edge="1">
          <mxGeometry width="50" height="50" relative="1" as="geometry">
            <mxPoint x="270" y="370" as="sourcePoint" />
            <mxPoint x="450" y="580" as="targetPoint" />
          </mxGeometry>
        </mxCell>
        <mxCell id="QIH-8TVDxYOv35t5eLtX-27" value="" style="shape=flexArrow;endArrow=classic;html=1;rounded=0;fontSize=20;exitX=0.738;exitY=1.035;exitDx=0;exitDy=0;exitPerimeter=0;fillColor=#1ba1e2;strokeColor=#006EAF;opacity=50;" parent="1" source="yO1_ZASthGaktMf6I8F5-1" edge="1">
          <mxGeometry width="50" height="50" relative="1" as="geometry">
            <mxPoint x="420" y="380" as="sourcePoint" />
            <mxPoint x="460" y="570" as="targetPoint" />
          </mxGeometry>
        </mxCell>
        <mxCell id="QIH-8TVDxYOv35t5eLtX-28" value="" style="shape=flexArrow;endArrow=classic;html=1;rounded=0;fontSize=20;fillColor=#1ba1e2;strokeColor=#006EAF;opacity=50;" parent="1" edge="1">
          <mxGeometry width="50" height="50" relative="1" as="geometry">
            <mxPoint x="520" y="370" as="sourcePoint" />
            <mxPoint x="480" y="570" as="targetPoint" />
          </mxGeometry>
        </mxCell>
        <mxCell id="QIH-8TVDxYOv35t5eLtX-29" value="" style="shape=flexArrow;endArrow=classic;html=1;rounded=0;fontSize=20;fillColor=#1ba1e2;strokeColor=#006EAF;opacity=50;" parent="1" edge="1">
          <mxGeometry width="50" height="50" relative="1" as="geometry">
            <mxPoint x="650" y="370" as="sourcePoint" />
            <mxPoint x="510" y="580" as="targetPoint" />
          </mxGeometry>
        </mxCell>
        <mxCell id="QIH-8TVDxYOv35t5eLtX-30" value="" style="shape=flexArrow;endArrow=classic;html=1;rounded=0;fontSize=20;fillColor=#1ba1e2;strokeColor=#006EAF;opacity=50;" parent="1" edge="1">
          <mxGeometry width="50" height="50" relative="1" as="geometry">
            <mxPoint x="760" y="360" as="sourcePoint" />
            <mxPoint x="540" y="590" as="targetPoint" />
          </mxGeometry>
        </mxCell>
        <mxCell id="QIH-8TVDxYOv35t5eLtX-31" value="" style="shape=flexArrow;endArrow=classic;html=1;rounded=0;fontSize=20;fillColor=#ffe6cc;strokeColor=#d79b00;shadow=0;opacity=50;" parent="1" edge="1">
          <mxGeometry width="50" height="50" relative="1" as="geometry">
            <mxPoint x="720" y="460" as="sourcePoint" />
            <mxPoint x="90" y="110" as="targetPoint" />
          </mxGeometry>
        </mxCell>
        <mxCell id="jBPF_f7ZTH-fk4i7ck3q-1" value="Electronic Health Record System" style="text;strokeColor=none;align=center;fillColor=none;html=1;verticalAlign=middle;whiteSpace=wrap;rounded=0;fontSize=20;fontStyle=1" vertex="1" parent="1">
          <mxGeometry x="280" y="170" width="350" height="30" as="geometry" />
        </mxCell>
        <mxCell id="jBPF_f7ZTH-fk4i7ck3q-7" value="" style="shape=flexArrow;endArrow=classic;html=1;rounded=0;fontSize=20;fillColor=#d5e8d4;strokeColor=#82b366;opacity=50;" edge="1" parent="1">
          <mxGeometry width="50" height="50" relative="1" as="geometry">
            <mxPoint x="130" y="290" as="sourcePoint" />
            <mxPoint x="740" y="90" as="targetPoint" />
          </mxGeometry>
        </mxCell>
        <mxCell id="jBPF_f7ZTH-fk4i7ck3q-8" value="&lt;font style=&quot;font-size: 19px;&quot;&gt;Manage Multi-provider Collaboration&lt;/font&gt;&lt;span style=&quot;font-size: medium; text-align: start;&quot;&gt;&lt;/span&gt;" style="ellipse;whiteSpace=wrap;html=1;fontSize=20;" vertex="1" parent="1">
          <mxGeometry x="880" y="290" width="140" height="80" as="geometry" />
        </mxCell>
        <mxCell id="jBPF_f7ZTH-fk4i7ck3q-9" value="" style="shape=flexArrow;endArrow=classic;html=1;rounded=0;fontSize=20;fillColor=#d5e8d4;strokeColor=#82b366;opacity=50;" edge="1" parent="1">
          <mxGeometry width="50" height="50" relative="1" as="geometry">
            <mxPoint x="910" y="300" as="sourcePoint" />
            <mxPoint x="880" y="100" as="targetPoint" />
          </mxGeometry>
        </mxCell>
        <mxCell id="jBPF_f7ZTH-fk4i7ck3q-10" value="" style="shape=flexArrow;endArrow=classic;html=1;rounded=0;fontSize=20;fillColor=#1ba1e2;strokeColor=#006EAF;opacity=50;" edge="1" parent="1">
          <mxGeometry width="50" height="50" relative="1" as="geometry">
            <mxPoint x="920" y="370" as="sourcePoint" />
            <mxPoint x="570" y="590" as="targetPoint" />
          </mxGeometry>
        </mxCell>
      </root>
    </mxGraphModel>
  </diagram>
</mxfile>
